<svg xmlns="http://www.w3.org/2000/svg" viewBox="0 0 946 175" width="946" height="175" role="img" aria-label="Open Excalidraw">
  <g transform="scale(1.75)">
    <g transform="translate(-1.5 3.5)" fill="#6965db">
      <g transform="rotate(-18 50 50)">
        <circle cx="50" cy="11" r="5"></circle>
        <rect x="46" y="15" width="8" height="7.5" rx="2"></rect>
        <path d="M30 22 L70 22 Q75 22 75 26.5 Q75 31 70 31 L30 31 Q25 31 25 26.5 Q25 22 30 22 Z"></path>
        <path fill-rule="evenodd" d="M43 33 L57 33 L60 52 L50 72 L40 52 Z M49 55 L51 55 L50.4 69 L49.6 69 Z M52.6 53 a2.6 2.6 0 1 0 -5.2 0 a2.6 2.6 0 1 0 5.2 0 Z"></path>
      </g>
      <path d="M56 71 Q68 81 84 73" fill="none" stroke="#6965db" stroke-width="9.5" stroke-linecap="round" stroke-linejoin="round"></path>
    </g>
  </g>

  <!-- "Open Excalidraw" set in Gochi Hand and converted to outlines. -->
  <g transform="translate(192.1 102.0) scale(0.05144)" fill="#1e1d2a">
    <path d="M555 125Q446 125 354 88Q263 51 197 -16Q131 -82 94 -174Q57 -266 57 -377Q57 -437 68 -492Q78 -548 96 -596Q104 -615 104 -623Q104 -633 99 -642Q94 -651 88 -661Q82 -671 77 -682Q72 -693 72 -707Q72 -749 120 -790Q168 -830 247 -862Q326 -893 426 -912Q526 -932 631 -932Q760 -932 864 -899Q967 -866 1040 -804Q1112 -743 1151 -655Q1190 -567 1190 -457Q1190 -334 1141 -228Q1092 -121 1006 -43Q921 35 805 80Q689 125 555 125ZM989 -418Q989 -496 962 -558Q935 -620 884 -662Q833 -705 758 -728Q684 -750 590 -750Q425 -750 342 -666Q258 -583 258 -418Q258 -338 283 -272Q308 -205 353 -158Q398 -110 460 -84Q523 -57 598 -57Q684 -57 756 -84Q828 -110 880 -158Q931 -206 960 -272Q989 -339 989 -418Z M1219 -698Q1219 -737 1254 -758Q1289 -778 1354 -778Q1369 -778 1381 -774Q1393 -770 1402 -758Q1412 -747 1420 -727Q1428 -707 1436 -676Q1444 -641 1452 -641Q1459 -641 1469 -670Q1487 -727 1516 -770Q1546 -812 1583 -840Q1620 -869 1664 -883Q1707 -897 1755 -897Q1852 -897 1936 -860Q2020 -824 2081 -760Q2142 -695 2177 -608Q2212 -520 2212 -418Q2212 -310 2174 -218Q2137 -126 2070 -60Q2003 7 1910 44Q1818 82 1708 82L1657 80Q1612 80 1612 131L1663 590Q1662 607 1652 622Q1641 636 1624 647Q1606 658 1582 664Q1559 670 1534 670Q1462 670 1456 623Q1435 441 1410 277Q1384 113 1358 -28Q1331 -170 1306 -286Q1281 -402 1262 -488Q1242 -574 1230 -628Q1219 -682 1219 -698ZM1544 -434Q1544 -369 1549 -306Q1554 -242 1565 -168Q1571 -123 1614 -117Q1640 -111 1672 -106Q1705 -100 1727 -100Q1791 -100 1843 -119Q1895 -138 1932 -174Q1969 -209 1989 -258Q2009 -307 2009 -367Q2009 -440 1989 -504Q1969 -567 1934 -614Q1900 -661 1854 -688Q1807 -715 1753 -715Q1706 -715 1668 -694Q1629 -674 1602 -638Q1574 -601 1559 -549Q1544 -497 1544 -434Z M3175 -219Q3204 -244 3232 -244Q3248 -244 3261 -236Q3274 -228 3290 -211Q3305 -188 3312 -174Q3318 -159 3318 -145Q3318 -115 3288 -88Q3240 -48 3184 -16Q3128 15 3067 37Q3006 59 2941 70Q2876 82 2812 82Q2731 82 2660 62Q2589 41 2534 3Q2478 -35 2440 -88Q2402 -142 2386 -209Q2377 -237 2370 -246Q2362 -254 2345 -254Q2308 -254 2288 -272Q2268 -290 2268 -324Q2268 -338 2270 -342L2272 -362Q2277 -398 2292 -414Q2306 -430 2337 -430H2352Q2394 -430 2411 -469Q2442 -538 2490 -595Q2538 -652 2598 -692Q2658 -733 2726 -756Q2795 -778 2866 -778Q2940 -778 3004 -756Q3069 -735 3117 -697Q3165 -659 3192 -608Q3220 -557 3220 -498Q3220 -457 3204 -423Q3188 -389 3158 -364Q3128 -338 3086 -322Q3043 -306 2989 -301L2642 -266Q2622 -266 2610 -256Q2597 -246 2597 -229Q2597 -203 2616 -179Q2636 -155 2668 -136Q2701 -118 2744 -107Q2786 -96 2831 -96Q2874 -96 2920 -104Q2965 -113 3010 -129Q3054 -145 3096 -168Q3138 -190 3175 -219ZM2952 -477Q2967 -480 2978 -492Q2989 -503 2989 -520Q2989 -535 2978 -548Q2967 -561 2948 -572Q2929 -582 2904 -588Q2879 -594 2851 -594Q2810 -594 2767 -582Q2724 -570 2689 -550Q2654 -531 2632 -508Q2610 -484 2610 -461Q2610 -438 2638 -438Q2655 -438 2693 -442Q2731 -446 2777 -452Q2823 -457 2870 -464Q2917 -471 2952 -477Z M3398 -807Q3398 -822 3411 -836Q3424 -851 3445 -862Q3466 -874 3492 -882Q3519 -889 3546 -889Q3561 -889 3572 -881Q3582 -873 3590 -850Q3598 -828 3604 -788Q3611 -747 3617 -682Q3621 -662 3624 -652Q3628 -641 3634 -641Q3643 -641 3652 -672Q3725 -883 3863 -883Q3927 -883 3980 -843Q4032 -803 4078 -712Q4123 -622 4164 -474Q4205 -327 4246 -111Q4248 -100 4249 -91Q4250 -82 4250 -74Q4250 -51 4240 -34Q4229 -18 4212 -8Q4195 3 4174 8Q4153 14 4132 14Q4090 14 4072 5Q4053 -4 4048 -29Q4019 -181 3992 -299Q3964 -417 3938 -498Q3911 -578 3885 -620Q3859 -662 3833 -662Q3807 -662 3784 -630Q3762 -597 3741 -528Q3720 -459 3700 -353Q3681 -247 3663 -100Q3658 -60 3623 -36Q3588 -12 3534 -12Q3498 -12 3479 -27Q3460 -42 3458 -68Q3449 -276 3438 -410Q3428 -545 3419 -626Q3410 -708 3404 -748Q3398 -788 3398 -807Z M4916 -246Q4913 -246 4906 -245Q4900 -244 4892 -243Q4885 -242 4878 -241Q4871 -240 4867 -240Q4839 -240 4818 -264Q4797 -287 4797 -326Q4797 -352 4814 -376Q4831 -400 4867 -416Q4878 -421 4884 -428Q4891 -434 4891 -446Q4891 -478 4890 -514Q4888 -551 4885 -600Q4884 -610 4878 -619Q4873 -628 4866 -640Q4860 -651 4855 -665Q4850 -679 4850 -700Q4850 -719 4856 -744Q4861 -768 4878 -790Q4896 -811 4928 -826Q4959 -840 5010 -840Q5031 -840 5045 -836Q5059 -832 5070 -826Q5080 -821 5088 -817Q5097 -813 5106 -813Q5122 -813 5170 -819Q5218 -825 5286 -836Q5353 -847 5434 -861Q5516 -875 5600 -892Q5684 -908 5764 -925Q5844 -942 5909 -958Q5929 -963 5944 -963Q5965 -963 5978 -954Q5990 -944 5996 -930Q6002 -916 6004 -898Q6005 -881 6005 -866Q6005 -840 5988 -818Q5970 -795 5930 -782Q5831 -753 5730 -732Q5630 -710 5528 -692Q5426 -675 5323 -661Q5220 -647 5118 -633Q5104 -631 5097 -622Q5090 -614 5090 -600V-559Q5090 -542 5091 -524Q5092 -506 5096 -491Q5099 -476 5105 -466Q5111 -457 5121 -457Q5145 -457 5196 -467Q5246 -477 5310 -492Q5373 -506 5442 -524Q5512 -541 5574 -556Q5636 -570 5683 -580Q5730 -590 5749 -590Q5777 -590 5792 -570Q5806 -549 5811 -518Q5811 -513 5812 -509Q5813 -505 5813 -500Q5813 -471 5796 -446Q5778 -422 5733 -410Q5721 -406 5685 -398Q5649 -389 5600 -378Q5551 -366 5494 -353Q5437 -340 5382 -328Q5327 -315 5280 -304Q5232 -292 5202 -285Q5175 -278 5170 -274Q5164 -270 5164 -264Q5166 -242 5186 -223Q5207 -204 5238 -188Q5270 -172 5310 -159Q5349 -146 5392 -138Q5434 -129 5475 -124Q5516 -119 5551 -119Q5566 -119 5594 -119Q5622 -119 5656 -120Q5689 -122 5724 -125Q5760 -128 5788 -134Q5817 -139 5836 -148Q5854 -156 5854 -168Q5854 -179 5846 -191Q5839 -203 5839 -217Q5839 -237 5850 -256Q5861 -276 5878 -292Q5896 -307 5918 -316Q5941 -326 5964 -326Q5993 -326 6017 -314Q6041 -303 6058 -284Q6076 -266 6086 -242Q6095 -218 6095 -193Q6095 -127 6046 -79Q5998 -31 5920 0Q5842 32 5744 48Q5646 63 5547 63Q5431 63 5335 48Q5239 32 5163 -2Q5087 -36 5032 -90Q4977 -145 4942 -223Q4930 -246 4916 -246Z M6143 -844Q6130 -865 6126 -880Q6122 -894 6122 -903Q6122 -920 6137 -938Q6152 -956 6174 -970Q6196 -985 6221 -994Q6246 -1004 6265 -1004Q6276 -1004 6288 -996Q6301 -987 6323 -952Q6358 -895 6396 -834Q6435 -773 6478 -711Q6495 -688 6513 -688Q6533 -688 6550 -709Q6618 -784 6687 -848Q6756 -912 6825 -952Q6867 -977 6894 -985Q6921 -993 6933 -993Q6952 -993 6972 -981Q6992 -969 7008 -952Q7025 -934 7036 -915Q7046 -896 7046 -881Q7046 -858 7018 -836Q6989 -814 6935 -782Q6860 -736 6792 -674Q6725 -612 6663 -543Q6653 -533 6650 -524Q6646 -515 6646 -506Q6646 -498 6650 -489Q6653 -480 6661 -471Q6698 -428 6735 -392Q6772 -356 6806 -330Q6841 -305 6874 -290Q6906 -276 6935 -276Q6958 -276 6984 -282Q7010 -289 7031 -289Q7060 -289 7072 -272Q7083 -254 7083 -225Q7083 -192 7071 -166Q7059 -140 7038 -122Q7018 -105 6990 -96Q6962 -86 6931 -86Q6883 -86 6833 -103Q6783 -120 6733 -150Q6683 -180 6634 -220Q6585 -261 6538 -309Q6520 -328 6501 -328Q6481 -328 6464 -307Q6417 -249 6374 -198Q6330 -147 6290 -109Q6249 -71 6212 -49Q6174 -27 6138 -27Q6112 -27 6092 -38Q6073 -48 6060 -63Q6047 -78 6040 -94Q6034 -110 6034 -121Q6034 -135 6044 -148Q6054 -160 6073 -176Q6092 -191 6118 -213Q6143 -235 6175 -268Q6210 -303 6252 -354Q6294 -406 6343 -465Q6348 -471 6351 -478Q6354 -486 6354 -494Q6354 -522 6323 -565Q6261 -650 6215 -724Q6169 -799 6143 -844Z M7545 -825Q7597 -825 7646 -810Q7695 -795 7732 -770Q7770 -744 7793 -712Q7816 -679 7816 -645Q7816 -623 7807 -602Q7798 -582 7783 -566Q7768 -551 7749 -542Q7730 -532 7709 -532Q7686 -532 7667 -550Q7648 -567 7626 -588Q7605 -610 7578 -628Q7552 -645 7515 -645Q7479 -645 7450 -628Q7421 -611 7402 -580Q7382 -550 7372 -508Q7361 -467 7361 -418Q7361 -278 7414 -204Q7467 -131 7566 -131Q7613 -131 7646 -146Q7680 -161 7706 -179Q7731 -197 7752 -212Q7773 -227 7795 -227Q7807 -227 7819 -220Q7831 -212 7840 -200Q7850 -189 7856 -175Q7863 -161 7863 -147Q7863 -114 7830 -79Q7798 -44 7747 -16Q7696 13 7634 31Q7571 49 7512 49Q7433 49 7367 18Q7301 -12 7253 -66Q7205 -121 7178 -197Q7152 -273 7152 -365Q7152 -465 7182 -549Q7211 -633 7264 -694Q7316 -756 7388 -790Q7460 -825 7545 -825Z M8516 -874Q8571 -874 8622 -857Q8673 -840 8712 -810Q8751 -780 8774 -738Q8798 -696 8798 -645Q8798 -624 8788 -604Q8779 -585 8763 -570Q8747 -556 8726 -548Q8706 -539 8684 -539Q8682 -539 8680 -538Q8679 -538 8677 -538Q8675 -537 8673 -537L8677 -457Q8681 -314 8718 -248Q8754 -182 8813 -182Q8834 -182 8850 -186Q8867 -190 8882 -196Q8896 -201 8909 -205Q8922 -209 8935 -209Q8958 -209 8976 -189Q8993 -169 8993 -141Q8993 -113 8972 -85Q8950 -57 8915 -34Q8880 -12 8836 2Q8792 16 8747 16Q8669 16 8610 -48Q8551 -113 8526 -238Q8520 -258 8510 -258Q8498 -258 8489 -246Q8390 -121 8278 -58Q8166 4 8057 4Q8006 4 7965 -11Q7924 -26 7896 -54Q7867 -81 7852 -120Q7836 -160 7836 -209Q7836 -278 7866 -354Q7897 -430 7949 -504Q8001 -578 8070 -645Q8138 -712 8214 -763Q8289 -814 8367 -844Q8445 -874 8516 -874ZM8483 -528Q8501 -562 8516 -578Q8531 -593 8559 -598Q8581 -601 8581 -612Q8581 -620 8575 -629Q8556 -655 8535 -674Q8514 -694 8479 -694Q8441 -694 8394 -672Q8347 -650 8298 -614Q8250 -577 8204 -530Q8157 -484 8121 -435Q8085 -386 8063 -338Q8041 -290 8041 -252Q8041 -218 8060 -199Q8078 -180 8110 -180Q8192 -180 8289 -267Q8386 -354 8483 -528Z M8971 -1139Q8971 -1191 9001 -1213Q9031 -1235 9100 -1235Q9124 -1235 9142 -1230Q9160 -1225 9172 -1214Q9184 -1202 9192 -1182Q9199 -1163 9204 -1133Q9217 -1044 9230 -946Q9244 -849 9256 -752Q9269 -656 9280 -564Q9291 -473 9300 -394Q9308 -316 9312 -256Q9317 -195 9317 -160Q9317 -124 9310 -99Q9304 -74 9288 -59Q9273 -44 9248 -38Q9224 -31 9188 -31Q9153 -31 9132 -49Q9112 -67 9112 -104Q9112 -142 9106 -206Q9100 -269 9090 -347Q9080 -425 9068 -513Q9055 -601 9042 -687Q9028 -773 9016 -852Q9003 -932 8993 -994Q8983 -1055 8977 -1094Q8971 -1134 8971 -1139Z M9626 -1020Q9597 -1020 9572 -1028Q9546 -1037 9528 -1052Q9509 -1068 9498 -1089Q9487 -1110 9487 -1135Q9487 -1177 9520 -1203Q9554 -1229 9610 -1229Q9636 -1229 9660 -1220Q9684 -1210 9702 -1194Q9721 -1178 9732 -1156Q9743 -1135 9743 -1112Q9743 -1069 9712 -1044Q9680 -1020 9626 -1020ZM9489 -715Q9489 -750 9520 -772Q9550 -795 9600 -795Q9690 -795 9696 -733Q9700 -690 9704 -636Q9709 -582 9714 -522Q9718 -461 9722 -396Q9725 -332 9728 -270Q9731 -207 9733 -149Q9735 -91 9735 -43Q9735 7 9700 32Q9664 57 9596 57Q9565 57 9548 42Q9530 28 9530 0Q9530 -138 9524 -258Q9517 -379 9510 -473Q9502 -567 9496 -630Q9489 -692 9489 -715Z M10589 -731Q10593 -729 10601 -729Q10623 -729 10623 -758V-1069Q10623 -1128 10650 -1153Q10676 -1178 10738 -1178Q10801 -1178 10827 -1152Q10853 -1126 10853 -1063Q10853 -1039 10850 -992Q10847 -946 10844 -887Q10840 -828 10837 -760Q10834 -693 10834 -627Q10834 -525 10848 -451Q10862 -377 10888 -328Q10914 -280 10950 -256Q10986 -233 11031 -233Q11056 -233 11076 -240Q11097 -246 11125 -246Q11145 -246 11158 -226Q11172 -205 11172 -176Q11172 -150 11156 -127Q11141 -104 11114 -87Q11088 -70 11053 -60Q11018 -51 10980 -51Q10898 -51 10830 -102Q10762 -152 10728 -256Q10725 -272 10718 -272Q10710 -272 10705 -256Q10678 -183 10634 -124Q10591 -66 10534 -24Q10476 17 10408 39Q10339 61 10263 61Q10183 61 10116 34Q10050 8 10002 -40Q9954 -87 9927 -152Q9900 -216 9900 -291Q9900 -387 9940 -472Q9980 -557 10048 -620Q10117 -684 10208 -721Q10299 -758 10402 -758Q10444 -758 10491 -752Q10538 -745 10589 -731ZM10302 -119Q10359 -119 10404 -144Q10448 -169 10482 -208Q10517 -246 10541 -292Q10565 -339 10580 -383Q10595 -427 10602 -462Q10609 -497 10609 -512Q10609 -523 10603 -532Q10597 -540 10585 -545Q10558 -552 10529 -558Q10500 -563 10472 -567Q10444 -571 10418 -573Q10393 -575 10372 -575Q10312 -575 10263 -557Q10214 -539 10180 -506Q10145 -473 10126 -428Q10107 -382 10107 -328Q10107 -280 10122 -242Q10136 -203 10162 -176Q10187 -149 10223 -134Q10259 -119 10302 -119Z M11662 -748Q11625 -748 11597 -728Q11569 -709 11549 -674Q11529 -640 11516 -594Q11503 -547 11495 -492Q11487 -437 11484 -377Q11481 -317 11481 -256Q11481 -176 11488 -98Q11494 -21 11494 45Q11494 88 11462 112Q11430 137 11371 137Q11360 137 11346 135Q11332 133 11320 127Q11307 121 11298 110Q11288 100 11287 82Q11278 -6 11261 -98Q11244 -190 11218 -282Q11193 -373 11158 -463Q11122 -553 11076 -639Q11068 -654 11062 -667Q11057 -680 11057 -692Q11057 -707 11070 -724Q11084 -742 11104 -757Q11125 -772 11150 -782Q11174 -791 11197 -791Q11235 -791 11264 -738Q11293 -686 11318 -571Q11323 -551 11326 -543Q11329 -535 11334 -535Q11345 -535 11348 -569Q11360 -664 11389 -732Q11418 -801 11462 -846Q11505 -890 11562 -911Q11618 -932 11686 -932Q11725 -932 11765 -925Q11805 -918 11837 -904Q11869 -890 11889 -870Q11909 -850 11909 -825Q11909 -807 11902 -782Q11894 -758 11882 -736Q11870 -713 11854 -698Q11839 -682 11823 -682Q11805 -682 11788 -692Q11771 -703 11752 -715Q11732 -727 11710 -738Q11689 -748 11662 -748Z M12473 -874Q12528 -874 12579 -857Q12630 -840 12669 -810Q12708 -780 12732 -738Q12755 -696 12755 -645Q12755 -624 12746 -604Q12736 -585 12720 -570Q12704 -556 12684 -548Q12663 -539 12641 -539Q12639 -539 12638 -538Q12636 -538 12634 -538Q12632 -537 12630 -537L12634 -457Q12638 -314 12674 -248Q12711 -182 12770 -182Q12791 -182 12808 -186Q12824 -190 12838 -196Q12853 -201 12866 -205Q12879 -209 12892 -209Q12915 -209 12932 -189Q12950 -169 12950 -141Q12950 -113 12928 -85Q12907 -57 12872 -34Q12837 -12 12793 2Q12749 16 12704 16Q12626 16 12567 -48Q12508 -113 12483 -238Q12477 -258 12467 -258Q12455 -258 12446 -246Q12347 -121 12235 -58Q12123 4 12014 4Q11963 4 11922 -11Q11881 -26 11852 -54Q11824 -81 11808 -120Q11793 -160 11793 -209Q11793 -278 11824 -354Q11854 -430 11906 -504Q11958 -578 12026 -645Q12095 -712 12170 -763Q12246 -814 12324 -844Q12402 -874 12473 -874ZM12440 -528Q12458 -562 12473 -578Q12488 -593 12516 -598Q12538 -601 12538 -612Q12538 -620 12532 -629Q12513 -655 12492 -674Q12471 -694 12436 -694Q12398 -694 12351 -672Q12304 -650 12256 -614Q12207 -577 12160 -530Q12114 -484 12078 -435Q12042 -386 12020 -338Q11998 -290 11998 -252Q11998 -218 12016 -199Q12035 -180 12067 -180Q12149 -180 12246 -267Q12343 -354 12440 -528Z M13618 -428Q13618 -586 13656 -671Q13694 -756 13765 -756Q13878 -756 13878 -561Q13878 -492 13870 -431Q13863 -370 13849 -313Q13847 -305 13846 -298Q13845 -291 13845 -285Q13845 -264 13853 -248Q13903 -121 14038 -121Q14086 -121 14128 -142Q14170 -163 14201 -200Q14232 -236 14250 -285Q14267 -334 14267 -391Q14267 -455 14252 -498Q14237 -540 14219 -570Q14201 -601 14186 -626Q14171 -652 14171 -684Q14171 -699 14184 -716Q14198 -732 14218 -746Q14239 -760 14264 -769Q14288 -778 14310 -778Q14339 -778 14368 -746Q14396 -714 14418 -662Q14441 -611 14454 -545Q14468 -479 14468 -412Q14468 -315 14432 -229Q14396 -143 14334 -78Q14272 -13 14190 25Q14107 63 14015 63Q13937 63 13876 36Q13816 8 13765 -61Q13757 -74 13749 -79Q13741 -84 13733 -84Q13723 -84 13715 -79Q13707 -74 13698 -61Q13630 28 13552 66Q13475 104 13382 104Q13279 104 13196 48Q13114 -9 13056 -113Q12998 -217 12967 -366Q12936 -514 12936 -698Q12936 -773 12942 -822Q12948 -872 12964 -900Q12980 -929 13006 -940Q13032 -952 13073 -952Q13116 -952 13136 -936Q13155 -919 13155 -879Q13155 -848 13149 -810Q13143 -771 13143 -743Q13143 -598 13164 -476Q13184 -354 13220 -266Q13257 -178 13308 -129Q13358 -80 13419 -80Q13555 -80 13620 -219Q13626 -230 13628 -240Q13630 -249 13630 -260Q13630 -266 13630 -272Q13630 -279 13628 -287Q13623 -325 13620 -360Q13618 -394 13618 -428Z"></path>
  </g>
</svg>
